<!-- Generated by IcoMoon.io -->
<svg version="1.1" xmlns="http://www.w3.org/2000/svg" width="2758" height="1024" viewBox="0 0 2758 1024">
<title></title>
<!-- <g data-icomoon>
</g> -->
<path d="M0 1024h2758.244v-1024h-2758.244v1024zM46.829 46.829h2664.585v930.341h-2664.585v-930.341z"></path>
<path d="M738.341 268.488v487.024l37.463 4.683v29.659h-188.878v-29.659l40.585-4.683v-221.659h-241.951v221.659l37.463 4.683v29.659h-185.756v-29.659l37.463-4.683v-487.024l-37.463-6.244v-26.537h185.756v26.537l-37.463 6.244v207.61h241.951v-207.61l-40.585-6.244v-26.537h188.878v26.537z"></path>
<path d="M995.902 758.634l35.902 4.683v26.537h-173.268v-26.537l35.902-4.683v-334.049l-35.902-4.683v-24.976h137.366z"></path>
<path d="M1108.293 764.878l34.341-4.683v-496.39l-34.341-4.683v-23.415h137.366v524.488l35.902 4.683v24.976h-173.268z"></path>
<path d="M1493.854 394.927h93.659v37.463h-93.659v234.146c0 60.878 12.488 79.61 68.683 79.61 20.293 0 39.024 0 54.634-4.683v26.537c-49.951 17.171-92.098 24.976-128 24.976-79.61 0-98.341-35.902-98.341-104.585v-256h-73.366v-37.463h74.927v-82.732l101.463-29.659c0 0 0 112.39 0 112.39z"></path>
<path d="M1940.293 593.171c0-124.878-37.463-179.512-98.341-179.512-59.317 0-95.22 51.512-95.22 179.512 0 124.878 37.463 177.951 95.22 177.951 64 0 98.341-49.951 98.341-177.951zM2054.244 596.293c0 123.317-82.732 204.488-213.854 204.488-126.439 0-207.61-53.073-207.61-204.488 0-126.439 82.732-212.293 213.854-212.293 129.561 0 207.61 76.488 207.61 212.293z"></path>
<path d="M2527.22 763.317v24.976h-174.829v-24.976l34.341-4.683v-224.78c0-62.439-23.415-90.537-70.244-90.537-21.854 0-56.195 15.61-82.732 32.78v282.537l35.902 4.683v24.976h-174.829v-24.976l35.902-4.683v-330.927l-35.902-4.683v-28.098h138.927v54.634c43.707-34.341 84.293-62.439 143.61-62.439 78.049 0 112.39 45.268 112.39 134.244v237.268l37.463 4.683z"></path>
<path d="M1002.146 290.341c0 31.22-24.976 56.195-56.195 56.195s-56.195-24.976-56.195-56.195 24.976-56.195 56.195-56.195c29.659 1.561 56.195 24.976 56.195 56.195z"></path>
</svg>
